<?xml version="1.0" encoding="UTF-8" standalone="no"?>
<!-- Created with Inkscape (http://www.inkscape.org/) -->

<svg
   xmlns:dc="http://purl.org/dc/elements/1.1/"
   xmlns:cc="http://creativecommons.org/ns#"
   xmlns:rdf="http://www.w3.org/1999/02/22-rdf-syntax-ns#"
   xmlns:svg="http://www.w3.org/2000/svg"
   xmlns="http://www.w3.org/2000/svg"
   xmlns:sodipodi="http://sodipodi.sourceforge.net/DTD/sodipodi-0.dtd"
   xmlns:inkscape="http://www.inkscape.org/namespaces/inkscape"
   width="337.06723mm"
   height="78.772751mm"
   viewBox="0 0 337.06723 78.772751"
   version="1.1"
   id="svg8"
   inkscape:version="0.92.1 r15371"
   sodipodi:docname="long-meadow-logo.svg">
  <defs
     id="defs2" />
  <sodipodi:namedview
     id="base"
     pagecolor="#ffffff"
     bordercolor="#666666"
     borderopacity="1.0"
     inkscape:pageopacity="0.0"
     inkscape:pageshadow="2"
     inkscape:zoom="0.98994948"
     inkscape:cx="595.72163"
     inkscape:cy="250.32425"
     inkscape:document-units="mm"
     inkscape:current-layer="layer1"
     showgrid="false"
     inkscape:snap-global="false"
     showguides="true"
     inkscape:guide-bbox="true"
     inkscape:window-width="1920"
     inkscape:window-height="1001"
     inkscape:window-x="-9"
     inkscape:window-y="-9"
     inkscape:window-maximized="1"
     fit-margin-top="0"
     fit-margin-left="0"
     fit-margin-right="0"
     fit-margin-bottom="0" />
  <metadata
     id="metadata5">
    <rdf:RDF>
      <cc:Work
         rdf:about="">
        <dc:format>image/svg+xml</dc:format>
        <dc:type
           rdf:resource="http://purl.org/dc/dcmitype/StillImage" />
        <dc:title />
      </cc:Work>
    </rdf:RDF>
  </metadata>
  <g
     inkscape:label="Layer 1"
     inkscape:groupmode="layer"
     id="layer1"
     transform="translate(479.59889,-205.12795)">
    <g
       id="g4503"
       transform="translate(-110.11505,276.89124)"
       inkscape:export-xdpi="204.85986"
       inkscape:export-ydpi="204.85986">
      <g
         id="g4509"
         transform="translate(161.4308,-52.384828)">
        <path
           style="fill:#000000;stroke-width:0.26220053"
           d="m -410.06795,56.837825 c -1.10433,-1.40605 -2.15482,-2.76543 -2.33442,-3.02084 -0.26879,-0.38224 -0.31772,-0.0112 -0.27663,2.09761 0.0406,2.08309 0.12635,2.57783 0.45885,2.64676 0.92037,0.1908 0.31988,0.57073 -0.90207,0.57073 -0.72105,0 -1.311,-0.11799 -1.311,-0.2622 0,-0.14422 0.23598,-0.26221 0.5244,-0.26221 0.49424,0 0.5244,-0.1748 0.5244,-3.03985 0,-2.81934 -0.038,-3.0498 -0.5244,-3.17699 -0.87294,-0.22828 -0.58843,-0.60039 0.45885,-0.60012 0.93239,2.3e-4 1.09044,0.13586 3.05548,2.622 1.13972,1.44197 2.08364,2.62203 2.0976,2.62236 0.0139,2.7e-4 -0.0125,-1.06158 -0.0588,-2.3598 -0.0759,-2.12758 -0.13405,-2.36041 -0.58995,-2.36041 -0.27819,0 -0.50579,-0.11799 -0.50579,-0.2622 0,-0.14421 0.58995,-0.2622 1.311,-0.2622 0.72105,0 1.311,0.11799 1.311,0.2622 0,0.14421 -0.17698,0.2622 -0.3933,0.2622 -0.33018,0 -0.3933,0.5681 -0.3933,3.53971 0,1.94684 -0.0999,3.53971 -0.22203,3.53971 -0.12212,0 -1.12558,-1.15041 -2.22991,-2.55646 z m 8.26562,2.08784 c -0.12371,-0.247 -0.73252,-1.74698 -1.3529,-3.33329 -0.62039,-1.58632 -1.28791,-3.01521 -1.48338,-3.17531 -0.60443,-0.49509 -0.40387,-0.6266 0.95561,-0.6266 1.1841,0 1.76364,0.32982 1.01691,0.57873 -0.19074,0.0636 0.0329,0.96965 0.63649,2.57831 0.84409,2.24974 0.95392,2.41935 1.1817,1.82477 0.13811,-0.36053 0.55964,-1.41328 0.93671,-2.33946 0.79713,-1.95789 0.81921,-2.11795 0.2923,-2.11795 -0.21632,0 -0.3933,-0.11799 -0.3933,-0.2622 0,-0.14421 0.53095,-0.2622 1.1799,-0.2622 1.11631,0 1.56824,0.31636 0.85215,0.59652 -0.18026,0.0705 -0.9177,1.61443 -1.63875,3.4309 -1.3127,3.30695 -1.76281,3.9476 -2.18344,3.10778 z m 16.811,0.2019 c -0.32834,-0.13215 -0.92012,-0.90711 -1.36367,-1.78579 -1.09746,-2.17406 -1.59597,-2.29698 -1.59597,-0.39353 0,1.09301 0.1178,1.55995 0.45885,1.81884 0.39869,0.30265 0.26119,0.34941 -1.0488,0.35666 -0.83586,0.005 -1.50765,-0.1085 -1.50765,-0.25386 0,-0.14422 0.17698,-0.26221 0.3933,-0.26221 0.32775,0 0.3933,-0.5244 0.3933,-3.1464 0,-2.62201 -0.0656,-3.14641 -0.3933,-3.14641 -0.21632,0 -0.3933,-0.11799 -0.3933,-0.2622 0,-0.15257 0.86221,-0.2622 2.06224,-0.2622 1.6893,0 2.18719,0.0983 2.75311,0.54343 0.9419,0.7409 0.92592,1.84402 -0.0383,2.64255 l -0.72915,0.60386 0.74984,1.38444 c 0.41242,0.76144 0.97982,1.50751 1.2609,1.65794 0.28107,0.15043 0.44179,0.38558 0.35713,0.52255 -0.18541,0.3 -0.58212,0.29484 -1.35854,-0.0177 z m -1.17668,-4.50533 c 0.78698,-0.78698 -0.0808,-2.30737 -1.3169,-2.30737 -0.38447,0 -0.46606,0.22951 -0.46606,1.311 0,1.26106 0.028,1.31101 0.73416,1.31101 0.40379,0 0.87575,-0.14159 1.0488,-0.31464 z m 6.73856,4.4161 c -1.33784,-0.61873 -2.02868,-1.58763 -2.16834,-3.04107 -0.15165,-1.57829 0.24785,-2.66727 1.30476,-3.55661 0.63269,-0.53237 1.05485,-0.65019 2.32965,-0.65019 1.39916,0 1.65363,0.0886 2.51118,0.8745 0.82873,0.75948 0.97006,1.06512 1.07442,2.32363 0.13561,1.63521 -0.41188,3.1394 -1.37154,3.76819 -0.85334,0.55912 -2.76389,0.70529 -3.68013,0.28155 z m 2.98757,-0.92732 c 1.62222,-1.62223 0.41489,-5.79615 -1.67657,-5.79615 -0.8487,0 -1.8987,0.92978 -2.10362,1.86278 -0.28094,1.27913 0.10465,3.11041 0.8017,3.80746 0.77974,0.77973 2.262,0.84239 2.97849,0.12591 z m 8.26487,-1.59923 c -1.26248,-1.58726 -2.33442,-2.88592 -2.38208,-2.88592 -0.0477,0 -0.0866,1.12091 -0.0866,2.49091 0,2.3161 0.0368,2.4909 0.5244,2.4909 0.28842,0 0.5244,0.11799 0.5244,0.26221 0,0.14421 -0.58995,0.2622 -1.31101,0.2622 -0.72105,0 -1.311,-0.11799 -1.311,-0.2622 0,-0.14422 0.23598,-0.26221 0.5244,-0.26221 0.49425,0 0.5244,-0.1748 0.5244,-3.03985 0,-2.81934 -0.038,-3.0498 -0.5244,-3.17699 -0.84818,-0.2218 -0.60106,-0.60037 0.39191,-0.60037 0.84886,0 1.06596,0.19159 2.94975,2.6032 1.1184,1.43175 2.09245,2.61193 2.16455,2.6226 0.0721,0.0107 0.0932,-1.04277 0.047,-2.34099 -0.0759,-2.12758 -0.13405,-2.36041 -0.58995,-2.36041 -0.27819,0 -0.5058,-0.11799 -0.5058,-0.2622 0,-0.14421 0.58995,-0.2622 1.31101,-0.2622 0.72105,0 1.311,0.11799 1.311,0.2622 0,0.14421 -0.17699,0.2622 -0.3933,0.2622 -0.32934,0 -0.3933,0.55182 -0.3933,3.39313 0,1.86623 -0.10797,3.45987 -0.23993,3.54142 -0.13196,0.0816 -1.27287,-1.15038 -2.53536,-2.73763 z m 9.19314,1.64921 c -0.26395,-0.69169 -0.80761,-1.96556 -1.20814,-2.83082 l -0.72824,-1.57321 -0.012,2.42536 c -0.01,1.98642 0.0591,2.42535 0.38127,2.42535 0.21632,0 0.3933,0.11799 0.3933,0.26221 0,0.14421 -0.53095,0.2622 -1.1799,0.2622 -0.64894,0 -1.1799,-0.11799 -1.1799,-0.2622 0,-0.14422 0.17698,-0.26221 0.3933,-0.26221 0.32775,0 0.3933,-0.5244 0.3933,-3.1464 0,-1.92281 -0.10197,-3.14641 -0.2622,-3.14641 -0.14421,0 -0.2622,-0.11799 -0.2622,-0.2622 0,-0.14421 0.45189,-0.2622 1.00421,-0.2622 h 1.00421 l 1.07527,2.68674 c 0.97467,2.43535 1.09863,2.62547 1.32487,2.03205 0.13728,-0.36008 0.63375,-1.56911 1.10328,-2.68674 l 0.85368,-2.03205 h 1.01245 c 0.55684,0 1.01245,0.11799 1.01245,0.2622 0,0.14421 -0.17699,0.2622 -0.3933,0.2622 -0.32775,0 -0.3933,0.5244 -0.3933,3.14641 0,2.622 0.0656,3.1464 0.3933,3.1464 0.21631,0 0.3933,0.11799 0.3933,0.26221 0,0.14421 -0.64895,0.2622 -1.44211,0.2622 -0.79315,0 -1.4421,-0.11799 -1.4421,-0.2622 0,-0.14422 0.17699,-0.26221 0.3933,-0.26221 0.32221,0 0.39091,-0.43841 0.38009,-2.42535 l -0.0132,-2.42536 -1.05551,2.62201 c -0.58052,1.4421 -1.14641,2.71598 -1.25752,2.83083 -0.11111,0.11485 -0.41797,-0.35711 -0.68192,-1.04881 z m 20.8107,0.50291 c -0.35473,-0.39145 -1.33521,-1.59665 -2.17885,-2.67823 -0.84364,-1.08158 -1.63338,-2.0786 -1.75497,-2.2156 -0.12191,-0.13734 -0.22109,0.8919 -0.22109,2.29426 0,2.36854 0.036,2.54334 0.5244,2.54334 0.28842,0 0.5244,0.11799 0.5244,0.26221 0,0.14421 -0.65591,0.2622 -1.45757,0.2622 -0.90495,0 -1.39614,-0.0994 -1.29553,-0.2622 0.0891,-0.14422 0.33207,-0.26221 0.53988,-0.26221 0.30797,0 0.37782,-0.58167 0.37782,-3.1464 0,-2.62201 -0.0656,-3.14641 -0.3933,-3.14641 -0.21631,0 -0.3933,-0.11799 -0.3933,-0.2622 0,-0.14421 0.40251,-0.2622 0.89448,-0.2622 0.816,0 1.06171,0.2128 2.80053,2.42536 1.04833,1.33394 2.0027,2.53744 2.12083,2.67444 0.11812,0.137 0.21477,-0.83642 0.21477,-2.16315 0,-2.23745 -0.038,-2.41225 -0.5244,-2.41225 -0.28842,0 -0.5244,-0.11799 -0.5244,-0.2622 0,-0.14421 0.58995,-0.2622 1.311,-0.2622 1.22906,0 1.82473,0.38318 0.88723,0.57073 -0.36625,0.0733 -0.41788,0.53533 -0.38039,3.40438 0.0239,1.82578 -0.0624,3.38496 -0.19161,3.46483 -0.12924,0.0799 -0.52521,-0.17505 -0.87993,-0.5665 z m 34.78187,0.37801 c -1.70055,-0.78387 -2.38031,-2.32348 -1.9375,-4.38827 0.19792,-0.92285 0.5204,-1.48782 1.17961,-2.06662 0.79107,-0.69456 1.10513,-0.79656 2.45259,-0.79656 1.05526,0 1.67602,0.13067 1.95738,0.41203 0.53221,0.53221 0.54502,1.68557 0.0187,1.68557 -0.21631,0 -0.3933,-0.17029 -0.3933,-0.37843 0,-0.50034 -1.016,-1.19477 -1.74802,-1.19477 -0.3204,0 -0.9136,0.28476 -1.31822,0.6328 -0.6789,0.58398 -0.73566,0.77791 -0.73566,2.51361 0,1.73569 0.0568,1.92963 0.73567,2.5136 1.07309,0.92304 2.35859,0.85942 3.1077,-0.1538 0.31986,-0.43263 0.69015,-0.7866 0.82287,-0.7866 0.31478,0 -0.0172,1.34482 -0.43857,1.77632 -0.49867,0.51073 -2.78686,0.65354 -3.70327,0.23112 z m 8.9522,0.0942 c -2.10691,-0.66364 -3.10615,-3.11303 -2.17117,-5.32206 0.56656,-1.33859 1.3146,-1.83581 2.96815,-1.97294 2.60003,-0.21561 4.01635,1.05673 4.01635,3.60804 0,1.54341 -0.47229,2.63003 -1.41024,3.2446 -0.82345,0.53954 -2.43112,0.74852 -3.40309,0.44236 z m 2.75223,-1.02971 c 0.54638,-0.44243 0.619,-0.72181 0.619,-2.38131 0,-1.792 -0.0401,-1.91593 -0.85629,-2.64518 -1.00356,-0.89668 -1.82969,-0.96851 -2.75629,-0.23965 -1.24113,0.97628 -1.1826,3.77549 0.10767,5.14891 0.71861,0.76493 2.02071,0.81782 2.88591,0.11723 z m 8.13112,-1.74832 -2.39921,-3.03615 v 2.5363 c 0,2.31579 0.0456,2.54822 0.5244,2.67343 0.98015,0.25632 0.52936,0.60038 -0.7866,0.60038 -1.31597,0 -1.76675,-0.34406 -0.78661,-0.60038 0.48498,-0.12682 0.52441,-0.35764 0.52441,-3.07043 0,-2.71279 -0.0394,-2.94361 -0.52441,-3.07044 -0.87363,-0.22846 -0.58803,-0.60054 0.45886,-0.59779 0.93062,0.002 1.08702,0.13618 2.92213,2.49887 1.06639,1.37296 2.01031,2.54082 2.09761,2.59525 0.0873,0.0544 0.12084,-0.95209 0.0746,-2.23668 -0.0758,-2.10309 -0.13452,-2.33562 -0.58995,-2.33562 -0.27819,0 -0.5058,-0.11799 -0.5058,-0.2622 0,-0.14421 0.58996,-0.2622 1.31101,-0.2622 0.72105,0 1.311,0.11799 1.311,0.2622 0,0.14421 -0.17699,0.2622 -0.3933,0.2622 -0.33018,0 -0.3933,0.5681 -0.3933,3.53971 0,1.94684 -0.10026,3.53971 -0.2228,3.53971 -0.12253,0 -1.30244,-1.36627 -2.622,-3.03616 z m 6.60391,2.7263 c -0.75745,-0.36641 -1.26614,-2.31215 -0.60448,-2.31215 0.14874,0 0.34366,0.20648 0.43316,0.45885 0.51717,1.45831 2.10705,1.87055 2.84871,0.73864 0.57757,-0.88148 0.20324,-1.46976 -1.41856,-2.22937 -2.94277,-1.37832 -2.22237,-4.08766 1.0367,-3.89891 1.28608,0.0745 1.39723,0.13462 1.59023,0.8604 0.2785,1.04734 -0.18041,1.48048 -0.59786,0.56428 -0.37466,-0.82229 -1.25901,-1.12056 -2.05669,-0.69365 -0.95561,0.51142 -0.57828,1.35208 0.98222,2.18835 1.85777,0.99557 2.30266,1.68927 1.88839,2.94452 -0.47132,1.42812 -2.55332,2.12809 -4.10182,1.37904 z m 8.69541,0.062 c -1.30364,-0.53357 -1.57244,-1.21829 -1.58569,-4.03931 -0.0107,-2.2893 -0.0745,-2.6707 -0.45886,-2.74472 -1.00623,-0.19378 -0.34788,-0.57191 0.99575,-0.57191 1.39573,0 1.88271,0.29922 1.02354,0.62891 -0.35216,0.13514 -0.40415,0.55924 -0.32775,2.67352 0.0819,2.26732 0.1513,2.56185 0.70981,3.01384 0.8931,0.72277 1.98326,0.64433 2.63948,-0.18992 0.46191,-0.58722 0.54343,-1.05922 0.54343,-3.1464 0,-2.30421 -0.0333,-2.45555 -0.53988,-2.45555 -0.29693,0 -0.46695,-0.11799 -0.37782,-0.2622 0.0891,-0.14421 0.68604,-0.2622 1.32648,-0.2622 0.64043,0 1.16442,0.11799 1.16442,0.2622 0,0.14421 -0.17698,0.2622 -0.3933,0.2622 -0.3196,0 -0.39337,0.4299 -0.3937,2.29426 -5.3e-4,2.57785 -0.4668,3.89726 -1.5728,4.44989 -0.73891,0.36921 -1.96915,0.40826 -2.75311,0.0874 z m 34.58044,-2.30858 c -1.1147,-1.40605 -2.1834,-2.72923 -2.3749,-2.94039 -0.29189,-0.32187 -0.34817,0.0278 -0.34817,2.16315 0,2.37229 0.036,2.54709 0.5244,2.54709 0.28842,0 0.5244,0.11799 0.5244,0.26221 0,0.14421 -0.58995,0.2622 -1.311,0.2622 -1.31597,0 -1.76675,-0.34406 -0.7866,-0.60038 0.48497,-0.12682 0.5244,-0.35764 0.5244,-3.07043 0,-2.71279 -0.0394,-2.94361 -0.5244,-3.07044 -0.84796,-0.22174 -0.60118,-0.60037 0.3913,-0.60037 0.84615,0 1.07519,0.20019 3.01531,2.63548 l 2.0996,2.63548 v -2.37328 c 0,-2.19848 -0.0386,-2.37328 -0.5244,-2.37328 -0.28843,0 -0.52441,-0.11799 -0.52441,-0.2622 0,-0.14421 0.58996,-0.2622 1.31101,-0.2622 0.72105,0 1.311,0.11799 1.311,0.2622 0,0.14421 -0.17699,0.2622 -0.3933,0.2622 -0.33018,0 -0.3933,0.5681 -0.3933,3.53971 0,2.04089 -0.10464,3.53971 -0.24711,3.53971 -0.13591,0 -1.15913,-1.15041 -2.27383,-2.55646 z m 14.41234,2.30943 c -0.67614,-0.28892 -0.76419,-0.423 -1.00008,-1.52283 -0.1456,-0.67886 -0.0985,-0.85215 0.23137,-0.85215 0.22777,0 0.41413,0.17699 0.41413,0.3933 0,1.12244 2.15962,1.92188 2.87223,1.06324 0.59996,-0.72292 0.20507,-1.55403 -1.06581,-2.24314 -1.76566,-0.95741 -2.06862,-1.28182 -2.06862,-2.21511 0,-1.27089 0.90291,-1.9801 2.52091,-1.9801 1.48875,0 1.9365,0.31525 1.9365,1.36344 0,0.93579 -0.3965,0.94197 -0.8403,0.0131 -0.60633,-1.26901 -2.30611,-1.00804 -2.30611,0.35407 0,0.49085 0.30934,0.77016 1.50711,1.36084 1.62358,0.80067 2.11023,1.5474 1.8039,2.76791 -0.0951,0.37896 -0.46153,0.87811 -0.81428,1.10924 -0.78425,0.51386 -2.42866,0.71391 -3.19095,0.38818 z m -202.77339,-0.27737 c 0,-0.14422 0.17699,-0.26221 0.3933,-0.26221 0.32775,0 0.3933,-0.5244 0.3933,-3.1464 0,-2.62201 -0.0656,-3.14641 -0.3933,-3.14641 -0.21631,0 -0.3933,-0.11799 -0.3933,-0.2622 0,-0.1564 1.0051,-0.2622 2.49091,-0.2622 h 2.4909 l -0.003,1.11435 -0.003,1.11435 -0.6716,-0.85215 c -0.48423,-0.6144 -0.88575,-0.85215 -1.4392,-0.85215 -0.73494,0 -0.76759,0.0502 -0.76759,1.1799 0,1.01118 0.0762,1.17991 0.53263,1.17991 0.29294,0 0.60054,-0.17699 0.68355,-0.3933 0.28567,-0.74446 0.61922,-0.39137 0.61922,0.6555 0,1.04686 -0.33355,1.39995 -0.61922,0.6555 -0.083,-0.21632 -0.39061,-0.3933 -0.68355,-0.3933 -0.48075,0 -0.53263,0.16602 -0.53263,1.7043 v 1.7043 h 1.06132 c 0.81197,0 1.21299,-0.16366 1.7069,-0.69659 0.76515,-0.82561 1.01842,-0.68989 0.7756,0.41564 l -0.17688,0.80536 h -2.73228 c -1.64671,0 -2.73227,-0.10418 -2.73227,-0.2622 z m 26.48225,0 c 0,-0.14422 0.17699,-0.26221 0.39331,-0.26221 0.32775,0 0.3933,-0.5244 0.3933,-3.1464 0,-2.62201 -0.0656,-3.14641 -0.3933,-3.14641 -0.21632,0 -0.39331,-0.11799 -0.39331,-0.2622 0,-0.14421 0.64895,-0.2622 1.44211,-0.2622 1.37907,0 1.88462,0.29848 1.0488,0.61922 -0.31699,0.12164 -0.3933,0.71691 -0.3933,3.0679 0,2.69098 0.0404,2.92755 0.52145,3.05335 0.2868,0.075 0.45682,0.24094 0.37783,0.36875 -0.19886,0.32176 -2.99689,0.29393 -2.99689,-0.0298 z m 44.24634,-0.17684 c 0.55061,-0.38408 0.58996,-0.60232 0.58996,-3.27198 0,-2.30075 -0.077,-2.88999 -0.3933,-3.01138 -0.9928,-0.38097 -0.18574,-0.61922 2.0976,-0.61922 h 2.4909 v 1.0488 c 0,0.57684 -0.11799,1.0488 -0.2622,1.0488 -0.14421,0 -0.2622,-0.1587 -0.2622,-0.35266 0,-0.61825 -0.96107,-1.26458 -1.74666,-1.17464 -0.67211,0.0769 -0.75206,0.1932 -0.82487,1.19955 -0.0745,1.02978 -0.0319,1.11436 0.5619,1.11436 0.35339,0 0.71044,-0.17699 0.79345,-0.3933 0.27451,-0.71537 0.69178,-0.40839 0.69178,0.50892 0,0.97355 -0.42924,1.48626 -0.6854,0.8187 -0.0865,-0.22546 -0.43966,-0.40992 -0.78475,-0.40992 -0.59745,0 -0.62745,0.0815 -0.62745,1.7043 v 1.7043 h 1.06072 c 0.78183,0 1.23306,-0.17234 1.71622,-0.6555 0.36053,-0.36052 0.77038,-0.6555 0.91078,-0.6555 0.2286,0 0.0923,1.11816 -0.19974,1.63876 -0.0607,0.10815 -1.37176,0.19046 -2.91351,0.18289 -2.62467,-0.0129 -2.76561,-0.04 -2.21323,-0.42528 z m 18.55069,0.17684 c 0.0891,-0.14422 0.33207,-0.26221 0.53988,-0.26221 0.2078,0 0.38142,-0.14748 0.38582,-0.32775 0.004,-0.18026 0.0777,-1.59614 0.16296,-3.1464 l 0.15497,-2.81866 h -0.84124 c -0.69393,0 -0.89323,0.13774 -1.13815,0.7866 -0.48361,1.28125 -1.0848,0.90904 -0.8035,-0.49747 l 0.16271,-0.81353 h 3.11363 3.11363 v 0.7866 c 0,0.43263 0,0.8751 0,0.98325 0,0.51332 -0.481,0.27417 -0.6282,-0.31233 -0.15418,-0.6143 -1.27943,-1.21049 -1.62758,-0.86234 -0.0736,0.0736 -0.14256,1.47412 -0.15332,3.11234 -0.0168,2.5546 0.0413,2.99066 0.40817,3.06337 0.23525,0.0466 0.42773,0.19411 0.42773,0.32775 0,0.13364 -0.7739,0.24298 -1.71978,0.24298 -1.07975,0 -1.65947,-0.0976 -1.55773,-0.2622 z m 5.76841,0 c 0.0891,-0.14422 0.3078,-0.26221 0.48593,-0.26221 0.17813,0 0.89888,-1.53387 1.60166,-3.4086 0.94751,-2.52755 1.39272,-3.40861 1.72241,-3.40861 0.33155,0 0.76039,0.86685 1.68628,3.40861 0.7859,2.15746 1.37651,3.4086 1.60905,3.4086 0.20206,0 0.36739,0.11799 0.36739,0.26221 0,0.14566 -0.6992,0.2622 -1.5732,0.2622 -0.87401,0 -1.57321,-0.11654 -1.57321,-0.2622 0,-0.14422 0.22882,-0.26221 0.50849,-0.26221 0.48741,0 0.49182,-0.0489 0.10645,-1.1799 -0.38506,-1.1301 -0.44553,-1.1799 -1.43268,-1.1799 -1.06711,0 -1.12313,0.0599 -1.65582,1.76985 -0.14979,0.48083 -0.0835,0.58995 0.35829,0.58995 0.29814,0 0.54207,0.11799 0.54207,0.26221 0,0.14421 -0.65591,0.2622 -1.45758,0.2622 -0.90495,0 -1.39614,-0.0994 -1.29553,-0.2622 z m 4.32631,-3.24549 c 0,-0.0545 -0.19349,-0.55595 -0.42998,-1.11435 l -0.42998,-1.01528 -0.33667,0.91771 c -0.47313,1.28964 -0.46644,1.311 0.41003,1.311 0.43263,0 0.7866,-0.0446 0.7866,-0.0991 z m 5.24401,3.24549 c 0,-0.14422 0.17699,-0.26221 0.3933,-0.26221 0.32775,0 0.3933,-0.5244 0.3933,-3.1464 0,-2.62201 -0.0656,-3.14641 -0.3933,-3.14641 -0.21631,0 -0.3933,-0.11799 -0.3933,-0.2622 0,-0.14421 0.64895,-0.2622 1.44211,-0.2622 1.37907,0 1.88462,0.29848 1.0488,0.61922 -0.31814,0.12208 -0.3933,0.72875 -0.3933,3.17446 v 3.02353 l 0.72105,-0.004 c 1.17545,-0.006 1.87345,-0.2833 2.04104,-0.81133 0.0866,-0.27285 0.32873,-0.49609 0.53808,-0.49609 0.28221,0 0.33606,0.18644 0.20828,0.72105 -0.0948,0.39658 -0.22199,0.80954 -0.28267,0.9177 -0.17011,0.30323 -5.32339,0.23977 -5.32339,-0.0655 z m 56.37312,0 c 0,-0.14422 0.17698,-0.26221 0.3933,-0.26221 0.32775,0 0.3933,-0.5244 0.3933,-3.1464 0,-2.62201 -0.0655,-3.14641 -0.3933,-3.14641 -0.21632,0 -0.3933,-0.11799 -0.3933,-0.2622 0,-0.14421 0.64894,-0.2622 1.4421,-0.2622 0.79316,0 1.4421,0.11799 1.4421,0.2622 0,0.14421 -0.17698,0.2622 -0.3933,0.2622 -0.32798,0 -0.3933,0.52819 -0.3933,3.18051 v 3.1805 l 1.22376,-0.13793 c 0.87236,-0.0983 1.3566,-0.31404 1.68637,-0.75124 0.57724,-0.76525 0.86628,-0.51893 0.6337,0.54002 l -0.17689,0.80536 h -2.73227 c -1.64672,0 -2.73227,-0.10418 -2.73227,-0.2622 z m 8.12821,0.0192 c 0,-0.13363 0.19194,-0.28112 0.42653,-0.32775 0.36764,-0.0731 0.41984,-0.5001 0.37814,-3.09338 -0.0266,-1.65474 -0.0951,-3.0553 -0.15211,-3.11235 -0.31977,-0.31977 -1.45004,0.30462 -1.59469,0.88094 -0.31185,1.24253 -1.03995,0.60523 -0.76076,-0.66589 l 0.17136,-0.78021 h 3.12557 3.12557 v 1.04881 c 0,1.14216 -0.37925,1.40067 -0.67317,0.45885 -0.21857,-0.70037 -0.58019,-0.974 -1.29333,-0.97862 -0.48958,-0.003 -0.52999,0.1981 -0.60851,3.03099 -0.0799,2.88393 -0.0572,3.04142 0.45885,3.17636 1.06913,0.27959 0.51481,0.60524 -1.03024,0.60524 -0.86526,0 -1.57321,-0.10934 -1.57321,-0.24298 z m 5.76842,-0.0192 c 0,-0.14422 0.16479,-0.26221 0.36621,-0.26221 0.22145,0 0.75348,-1.01054 1.34592,-2.55645 0.53885,-1.40605 1.13876,-2.949 1.33315,-3.42879 0.61396,-1.51539 1.10641,-1.00156 2.31414,2.41463 0.60578,1.71352 1.2996,3.2604 1.54181,3.43751 0.71937,0.52602 0.51905,0.65751 -1.00172,0.65751 -0.79316,0 -1.44211,-0.11799 -1.44211,-0.2622 0,-0.14422 0.18961,-0.26221 0.42136,-0.26221 0.29733,0 0.36661,-0.13505 0.23538,-0.45885 -0.10228,-0.25236 -0.30344,-0.78332 -0.447,-1.1799 -0.22246,-0.6145 -0.40843,-0.72105 -1.25854,-0.72105 -0.8501,0 -1.03607,0.10655 -1.25853,0.72105 -0.14357,0.39658 -0.34472,0.92754 -0.44701,1.1799 -0.14212,0.35066 -0.0557,0.45885 0.36649,0.45885 0.30385,0 0.55245,0.11799 0.55245,0.26221 0,0.14421 -0.58995,0.2622 -1.311,0.2622 -0.72105,0 -1.311,-0.11799 -1.311,-0.2622 z m 4.17526,-3.34306 c -0.011,-0.10816 -0.17145,-0.60962 -0.35662,-1.11435 l -0.33667,-0.91771 -0.42999,1.01528 c -0.5449,1.28663 -0.56642,1.21343 0.35662,1.21343 0.43263,0 0.77763,-0.0885 0.76666,-0.19665 z m 16.14528,3.34306 c 0.0891,-0.14422 0.32492,-0.26221 0.524,-0.26221 0.28232,0 0.37987,-0.66907 0.44338,-3.04104 0.0448,-1.67258 -0.0138,-3.09957 -0.13013,-3.17109 -0.48345,-0.29719 -1.49174,0.21728 -1.64829,0.84102 -0.31254,1.24526 -0.98667,0.65967 -0.72822,-0.63257 l 0.1627,-0.81353 h 3.11364 3.11363 v 1.0488 c 0,0.57684 -0.11799,1.0488 -0.2622,1.0488 -0.14421,0 -0.2622,-0.16855 -0.2622,-0.37457 0,-0.57901 -0.75517,-1.19863 -1.46084,-1.19863 h -0.63677 v 3.03985 c 0,2.81935 0.038,3.04981 0.5244,3.17699 1.08893,0.28476 0.46053,0.60038 -1.19538,0.60038 -1.07974,0 -1.65946,-0.0976 -1.55772,-0.2622 z M -364.16835,46.652357 c -1.21339,-0.6579 -1.36746,-1.53082 -0.56109,-3.17898 0.87871,-1.79602 2.46508,-3.06571 6.06799,-4.85666 3.07768,-1.52987 2.92447,-1.34037 5.0548,-6.25209 l 1.01838,-2.34799 -1.35937,1.13158 c -3.3734,2.80815 -5.86891,4.12308 -7.82552,4.12341 -1.04295,1.7e-4 -1.32167,-0.11808 -1.90095,-0.80652 -0.73731,-0.87623 -0.89894,-2.22505 -0.38231,-3.19038 0.29135,-0.54439 0.28338,-0.54383 -0.45885,0.0321 -4.49938,3.49127 -7.77742,4.32971 -9.03935,2.31203 -0.65112,-1.04106 -0.52513,-2.1299 0.56006,-4.84004 0.95827,-2.39315 0.98816,-2.9462 0.15922,-2.9462 -0.74334,0 -3.58012,2.09947 -4.99451,3.69638 -3.28169,3.70516 -5.16129,5.48064 -5.80202,5.48064 -1.26334,0 -1.11287,-0.81047 0.93705,-5.04736 0.4012,-0.82921 0.68826,-1.50765 0.63792,-1.50765 -0.0503,0 -0.42368,0.12647 -0.82964,0.28104 -1.38128,0.52594 -3.22023,0.75357 -4.36303,0.54007 l -1.14002,-0.21298 -0.63284,1.19329 c -1.92991,3.63903 -6.27651,6.10012 -8.76839,4.96475 -1.45942,-0.66496 -1.91086,-3.40123 -0.91129,-5.52358 0.81907,-1.73909 2.75703,-4.03358 4.47503,-5.2983 2.48242,-1.82746 5.62478,-2.76879 5.94873,-1.78202 0.1082,0.32958 -0.14236,0.46161 -2.37461,1.25124 -2.92502,1.03471 -6.21283,5.41987 -6.21283,8.28648 0,1.05945 0.1068,1.3397 0.64485,1.69225 0.43032,0.28196 0.9042,0.36556 1.42445,0.25129 1.08322,-0.23791 3.07602,-2.06452 4.27325,-3.91688 1.00013,-1.5474 1.00263,-1.55797 0.4952,-2.09979 -0.76412,-0.81591 -1.0961,-1.88213 -0.81566,-2.61973 0.64293,-1.69105 2.89273,-0.70752 2.89273,1.2646 0,1.07813 1.28546,1.59625 3.07079,1.23771 2.39718,-0.48143 3.59366,-1.14619 4.12652,-2.29271 0.7062,-1.5195 1.16935,-1.93634 2.15145,-1.93634 1.09946,0 1.15013,0.52737 0.22587,2.3513 -0.35816,0.70678 -0.94545,1.95044 -1.30511,2.76368 l -0.65391,1.47861 2.15726,-1.93555 c 4.08841,-3.66825 5.56614,-4.65804 6.95431,-4.65804 0.79578,0 1.62686,0.68743 1.62686,1.34568 0,0.21268 -0.41297,1.61296 -0.9177,3.11173 -1.42549,4.23286 -1.18551,5.37792 0.99157,4.73135 1.63666,-0.48607 4.1542,-2.27755 7.39757,-5.2641 2.2832,-2.10241 3.37409,-2.89587 5.24401,-3.81424 3.04116,-1.49359 4.74841,-1.72043 6.39224,-0.84932 0.63082,0.33429 1.33698,0.9329 1.56923,1.33025 0.39999,0.68432 0.38245,0.83976 -0.33233,2.94499 -0.41504,1.2224 -1.32955,3.42238 -2.03224,4.88885 -0.7027,1.46648 -1.23778,2.70618 -1.18906,2.75489 0.10295,0.10296 6.39324,-3.74653 8.70346,-5.32628 0.86526,-0.59168 1.85925,-1.38389 2.20886,-1.76049 0.69192,-0.74531 1.33085,-0.89877 1.33085,-0.31964 0,0.9855 -4.08641,3.96464 -12.99348,9.47273 -0.29642,0.1833 -1.35168,1.71033 -2.34502,3.39339 -2.56075,4.33879 -5.2402,6.7354 -7.47295,6.6841 -0.21631,-0.005 -0.72321,-0.18791 -1.12643,-0.40654 z m 3.62164,-2.26906 c 0.95358,-0.92108 4.0319,-5.44066 3.70567,-5.44066 -0.0537,0 -0.95931,0.47364 -2.01246,1.05254 -2.42519,1.33307 -3.93964,2.57185 -4.56593,3.7348 -0.65664,1.21932 -0.41534,1.76768 0.77784,1.76768 0.75152,0 1.1737,-0.22458 2.09488,-1.11436 z m 1.13693,-11.06433 c 1.70001,-0.59979 3.934,-2.26036 6.11691,-4.54683 2.20191,-2.30635 2.94932,-3.48224 2.70421,-4.25452 -0.23844,-0.75125 -1.70596,-0.92778 -3.32107,-0.3995 -4.15491,1.359 -8.86899,6.73005 -7.85674,8.95169 0.33045,0.72526 0.85122,0.78032 2.35669,0.24916 z m -38.17694,7.45901 c -1.99304,-0.28014 -5.16135,-1.23073 -9.36545,-2.8099 -1.73511,-0.65176 -4.61212,-1.68597 -6.39336,-2.29826 l -3.23862,-1.11325 -1.28063,0.86181 c -2.5762,1.73366 -6.40099,2.65757 -7.8379,1.89332 -0.78196,-0.41591 -1.30434,-1.37297 -1.12458,-2.06037 0.24064,-0.92022 1.70799,-2.0557 3.37219,-2.60951 1.30537,-0.4344 2.20075,-0.53578 4.34954,-0.49246 l 2.7058,0.0545 0.94948,-1.2445 c 0.94004,-1.23212 3.09325,-4.88036 7.82317,-13.255 3.39609,-6.01302 5.02939,-8.3902096 7.64955,-11.1335596 3.47416,-3.63749 6.70395,-5.25508 9.1679,-4.59161 1.6367,0.44072 2.13648,1.16046 2.01536,2.90239 -0.13027,1.87364 -1.10049,3.8068 -3.24169,6.4589796 -2.55276,3.16198 -6.0433,5.65874 -8.22116,5.88056 -1.37751,0.1403 -1.22685,-0.4217 0.3233,-1.206 0.77491,-0.39207 2.28087,-1.44369 3.34657,-2.33692 5.21358,-4.3698696 8.05524,-10.5490996 4.8079,-10.4548496 -3.35594,0.0974 -7.95247,5.55435 -14.40634,17.1030096 -2.77616,4.9677 -4.79899,8.1124 -6.9114,10.74451 l -1.34647,1.67774 2.29942,0.83114 c 1.26469,0.45713 4.01466,1.54905 6.11107,2.42647 5.3358,2.23325 7.95085,2.96568 11.17398,3.12964 2.2285,0.11336 2.96127,0.0446 4.49811,-0.42222 2.26038,-0.68657 2.41001,-0.68839 2.41001,-0.0294 0,0.59255 -1.19195,1.42727 -2.622,1.83618 -1.34272,0.38393 -5.12609,0.52283 -7.01375,0.2575 z m -23.92592,-5.13715 c 0.64895,-0.20409 1.63773,-0.64834 2.19729,-0.98723 l 1.01739,-0.61615 -1.32486,-0.17575 c -1.70163,-0.22573 -3.13759,0.0101 -4.41103,0.72441 -1.19625,0.67101 -1.46129,1.38126 -0.57497,1.54077 0.73142,0.13164 1.53141,0.006 3.09618,-0.48605 z m 80.10226,0.21417 c -0.43263,-0.274 -0.94737,-0.69289 -1.14388,-0.93087 -0.3059,-0.37047 -0.29407,-0.45695 0.0823,-0.60136 0.24176,-0.0928 0.73256,-0.0352 1.09067,0.12799 1.03572,0.47191 3.40232,0.3626 4.52251,-0.20888 3.02907,-1.54532 5.85001,-4.83439 11.63565,-13.5666 4.93585,-7.44961 7.99098,-11.4956996 10.80499,-14.3097296 4.25337,-4.25337 7.14898,-5.42900998 8.45654,-3.43344 0.62605,0.95548 0.52453,3.06278 -0.30892,6.41261 -0.79311,3.1876596 -4.49612,14.2828696 -5.79384,17.3598796 -1.08592,2.5748 -1.41643,2.89971 5.42138,-5.3294 6.09322,-7.33299 11.73524,-13.2622296 14.78755,-15.5403096 2.13407,-1.59276 2.76912,-1.93564 4.23511,-2.28664 1.60528,-0.38436 1.64671,0.0339 0.26543,2.6797 -6.68817,12.8112496 -9.37167,18.4431396 -10.21579,21.4400696 -1.07124,3.80328 -0.73523,6.29281 0.84933,6.29281 1.11173,0 3.08285,-0.79379 4.79786,-1.93215 1.22645,-0.81408 1.49619,-1.13988 1.73767,-2.09887 0.3653,-1.45076 2.11938,-4.0822 3.52065,-5.28164 1.73255,-1.48299 3.74074,-2.34652 5.45697,-2.34652 1.58537,0 2.2282,0.33783 2.62406,1.37902 0.67688,1.78032 -1.91484,3.9971 -6.64961,5.68764 -2.68064,0.95712 -3.01298,1.3763 -2.51656,3.1742 0.51885,1.87912 2.89617,2.063 6.06178,0.46888 2.37419,-1.19559 5.46893,-3.52531 8.32793,-6.26929 3.01326,-2.89203 4.95431,-4.06412 7.02479,-4.24189 1.38253,-0.1187 2.87937,0.49716 3.31978,1.3659 0.18878,0.37238 0.4753,0.50031 0.98839,0.44129 0.47298,-0.0544 0.77737,0.0598 0.8813,0.3306 0.0891,0.23223 -0.48667,1.826 -1.3125,3.63304 -1.89853,4.15427 -1.90683,5.1688 -0.0423,5.16283 1.84182,-0.006 3.51452,-1.17996 7.61057,-5.34183 3.16369,-3.21452 4.27029,-4.16662 5.62,-4.83535 1.92699,-0.95474 3.95004,-1.12291 4.9641,-0.41264 0.32983,0.23103 0.62482,0.37851 0.65553,0.32775 0.0307,-0.0508 0.6839,-1.68516 1.45153,-3.632 3.00499,-7.62117 7.0005,-13.6777696 10.05065,-15.2352896 1.19226,-0.60882 1.74472,-0.6236 2.53808,-0.0679 0.95305,0.66755 0.67985,2.55002 -0.81602,5.62279 -1.97107,4.0488896 -5.10573,8.4328596 -10.8077,15.1150896 -1.19847,1.4045 -2.05374,3.59139 -2.40402,6.14703 -0.13607,0.99271 -0.0647,1.28058 0.47248,1.90506 0.56697,0.65913 0.74422,0.71681 1.70444,0.55458 2.02985,-0.34294 4.20808,-1.91899 8.20503,-5.93671 4.11593,-4.13732 5.8395,-5.29098 7.96462,-5.33106 1.61221,-0.0304 1.41035,0.61401 -0.37919,1.21052 -0.82481,0.27494 -2.12913,1.02878 -2.98667,1.72616 -3.46592,2.81862 -5.22142,8.28032 -2.85255,8.87486 1.44521,0.36273 4.2207,-1.83786 5.60198,-4.44159 l 0.612,-1.15363 -0.56632,-0.60788 c -1.64762,-1.76851 -0.4054,-4.30311 1.46641,-2.99204 0.4293,0.30069 0.58274,0.67197 0.58274,1.41 0,1.77867 1.45921,2.22046 4.18013,1.26556 1.5895,-0.55783 1.73241,-0.67714 2.42089,-2.0211 0.92054,-1.79697 1.30267,-2.17698 2.18911,-2.17698 1.19487,0 1.20774,0.53354 0.0675,2.80039 -1.40302,2.78938 -2.04045,4.69442 -2.04045,6.09816 0,2.10569 1.44474,1.7654 4.19924,-0.98911 1.33018,-1.33017 2.02445,-2.31204 2.83436,-4.00844 0.83895,-1.75724 1.21773,-2.28316 1.73855,-2.41387 0.82801,-0.20782 1.55491,0.0484 1.36648,0.48158 -0.0779,0.17905 -0.57691,1.31447 -1.10897,2.52315 -1.14387,2.5986 -1.50388,5.19073 -0.80182,5.77339 1.01049,0.83863 3.2557,-1.20923 4.90255,-4.47163 0.62324,-1.23463 0.71469,-1.63431 0.50196,-2.19384 -0.43266,-1.13795 -0.31933,-2.87497 0.21937,-3.36249 1.11736,-1.0112 1.88031,-7.9e-4 1.88031,2.48988 0,1.91536 0.29232,2.44834 1.5105,2.75409 0.96216,0.24148 2.90318,-0.3328 3.95516,-1.17021 1.51822,-1.20854 1.57908,-1.23865 1.88513,-0.9326 0.41859,0.41859 -1.23095,2.06734 -2.7331,2.73182 -1.57688,0.69753 -3.56118,0.72134 -4.6884,0.0563 l -0.85487,-0.50438 -0.89558,1.53327 c -1.20004,2.05455 -3.56133,4.28282 -4.92862,4.65099 -1.85091,0.49841 -3.18345,-0.4406 -3.40096,-2.39655 l -0.1251,-1.12499 -1.11349,1.07026 c -1.40307,1.34862 -3.62687,2.46944 -4.89955,2.46944 -1.9011,0 -2.59098,-2.1025 -1.68147,-5.12455 0.21102,-0.70119 0.3507,-1.30788 0.31038,-1.34819 -0.0403,-0.0403 -0.47845,0.0464 -0.97363,0.1928 -0.49519,0.14636 -1.63691,0.2427 -2.53716,0.21408 l -1.63681,-0.052 -1.00351,1.5513 c -1.9492,3.01322 -4.65678,4.8288 -7.2012,4.8288 -0.8119,0 -1.18789,-0.17117 -1.78869,-0.81433 -0.75328,-0.80638 -0.90946,-1.40444 -0.79675,-3.05086 l 0.0582,-0.84989 -0.73212,0.69145 c -1.15786,1.09355 -3.67304,2.64713 -5.22667,3.22841 -3.43434,1.28496 -5.33796,0.24152 -5.33796,-2.92591 v -1.3958 l -1.90854,1.83742 c -3.99445,3.84558 -7.84168,4.41207 -8.47453,1.24784 -0.0909,-0.4546 -0.0397,-1.18692 0.11385,-1.62735 0.27656,-0.79333 0.2644,-0.78885 -1.30406,0.48024 -2.84495,2.30196 -5.67779,3.32846 -7.31456,2.65049 -1.33673,-0.55369 -1.90292,-2.21644 -1.29721,-3.80956 0.21126,-0.55568 -0.11963,-0.34361 -1.59453,1.02192 -3.22175,2.98285 -6.596,4.14696 -8.06184,2.78132 -0.68313,-0.63643 -0.7697,-2.15989 -0.20019,-3.52291 l 0.37365,-0.89427 -1.6191,1.19358 c -3.48919,2.57217 -7.78996,4.18806 -10.04781,3.77519 -1.71978,-0.31449 -2.97702,-1.4861 -2.97702,-2.77426 0,-0.24393 -0.51083,-0.015 -1.47768,0.66231 -1.91694,1.34282 -3.969,2.09706 -5.67712,2.08664 -1.35251,-0.008 -1.81058,-0.2104 -2.51716,-1.11081 -0.99268,-1.26501 -0.78023,-5.06958 0.49622,-8.88614 0.71922,-2.15046 5.47067,-11.8895 8.4097,-17.2373196 l 1.35451,-2.46467 -1.24936,0.89145 c -4.28989,3.06094 -15.88713,16.0903996 -22.14766,24.8828196 -0.77012,1.08157 -1.58034,2.11399 -1.80048,2.29425 -0.55059,0.45086 -1.49047,0.41085 -1.98583,-0.0845 -0.51838,-0.51838 -0.38299,-1.10897 0.95738,-4.17625 3.46966,-7.93994 5.95859,-14.87043 7.56297,-21.0593096 0.87311,-3.36802 0.99387,-5.02965 0.36553,-5.02965 -0.83993,0 -2.48006,1.08881 -4.22969,2.80792 -2.8872,2.83685 -5.70175,6.6996896 -13.33321,18.2992296 -3.99093,6.06606 -6.86264,9.29186 -9.55437,10.73245 -1.89149,1.01231 -4.94785,1.24498 -6.17176,0.46984 z m 69.4971,-2.2764 c 1.33766,-0.55891 3.83643,-2.55918 5.17167,-4.13992 2.92601,-3.46402 3.45684,-4.80106 2.14365,-5.39938 -2.04384,-0.93124 -4.67001,0.48061 -7.17214,3.8558 -2.10203,2.83549 -2.86587,4.95642 -2.0712,5.75109 0.41109,0.41109 0.81639,0.39688 1.92802,-0.0676 z m 20.64388,-0.34368 c 2.2974,-1.32101 6.30589,-5.90314 6.86529,-7.84775 0.3678,-1.27852 -1.58822,-2.07905 -3.39838,-1.39083 -1.88491,0.71664 -5.31531,4.96634 -6.05062,7.49572 -0.71543,2.46098 0.22802,3.09739 2.58371,1.74286 z m -31.87522,-6.14311 c 2.45659,-1.47814 3.44534,-3.15871 2.06259,-3.50575 -1.29879,-0.32598 -3.70874,1.35949 -5.23791,3.66329 -0.52032,0.78388 -0.94603,1.49326 -0.94603,1.57639 0,0.26819 2.63948,-0.84229 4.12135,-1.73393 z m 48.35016,-12.12456 c 2.68475,-3.96972 4.61912,-8.4492596 3.9413,-9.1270796 -0.30754,-0.30753 -1.19376,0.17583 -2.1596,1.17789 -0.8806,0.91362 -3.21407,4.5695696 -4.31042,6.7533296 -0.84743,1.68793 -3.79549,8.77645 -3.79549,9.12611 0,0.3146 4.92393,-5.85976 6.32421,-7.93025 z"
           id="path4523"
           inkscape:connector-curvature="0" />
        <path
           style="opacity:1;fill:#808080;stroke-width:0.25693932"
           d="m -446.00978,56.482611 c -0.57364,-0.407953 -1.59221,-2.046869 -2.03579,-3.275649 -0.25507,-0.70659 -0.58576,-1.439425 -0.73487,-1.628545 -0.14911,-0.18911 -1.29036,-0.85575 -2.53612,-1.48141 l -2.26503,-1.13755 1.2024,1.54832 c 1.02141,1.31529 1.21998,1.76058 1.31932,2.958415 0.1269,1.53022 -0.17722,2.18169 -1.01841,2.18169 -0.64141,0 -1.48432,-1.81545 -1.49198,-3.21344 -0.008,-1.429735 -0.40261,-2.664585 -1.0915,-3.414195 -0.47385,-0.51563 -5.52693,-3.13605 -6.04738,-3.13605 -0.0784,0 0.57259,0.7447 1.44661,1.65491 1.82161,1.89701 2.39898,3.06536 2.38535,4.826815 -0.0175,2.26587 -0.62149,2.94313 -1.82479,2.04634 -1.13702,-0.8474 -1.59411,-1.95687 -1.79526,-4.357635 -0.21098,-2.51805 -0.65722,-3.59249 -1.87911,-4.52447 -0.69069,-0.52681 -7.50932,-3.50006 -8.02678,-3.50006 -0.0858,0 0.77329,0.82424 1.9091,1.83163 2.91482,2.58526 4.13923,5.34491 2.8779,6.48638 -0.6158,0.55731 -1.49759,0.25015 -2.4163,-0.84166 -0.61033,-0.72534 -0.93828,-1.59846 -1.71802,-4.5741 -0.51772,-1.97569 -2.18311,-3.37514 -5.30043,-4.45406 -5.16311,-1.78698 -17.90024,-4.84888 -20.24924,-4.86776 -0.26699,-0.002 1.40954,1.22563 3.72562,2.72839 4.60183,2.98583 5.32948,3.56841 6.37542,5.10436 1.49432,2.19439 2.28984,5.41652 1.40858,5.70519 -0.58456,0.19147 -3.93997,-3.29097 -5.23214,-5.43021 -2.37844,-3.93763 -5.9624,-7.2144 -8.80079,-8.04644 -1.02012,-0.29904 -1.57943,-0.31417 -2.92876,-0.0792 -3.64545,0.63482 -19.76066,6.55183 -26.93648,9.89024 -2.37429,1.1046 -3.22598,1.28687 -3.22598,0.6904 0,-0.13251 1.12733,-0.80989 2.50517,-1.50529 2.32705,-1.17447 13.93987,-8.24024 15.09518,-9.18461 0.47969,-0.3921 0.29437,-0.41016 -2.78568,-0.27153 -3.6755,0.16542 -9.01842,0.72216 -12.05956,1.25661 -1.27028,0.22324 -2.05452,0.26017 -2.15266,0.10136 -0.27338,-0.44233 0.39325,-0.62357 4.36465,-1.18666 5.20585,-0.73813 8.72847,-1.06123 11.57017,-1.06123 3.04859,0 3.64242,-0.19259 5.73905,-1.86127 2.23501,-1.77882 11.4036,-8.89012 13.79407,-10.69889 3.90982,-2.95841 4.63149,-4.03161 5.8367,-8.67977 1.27749,-4.92697 3.44235,-8.92085 6.37673,-11.76431 0.73162,-0.70894004 1.12916,-0.93390004 1.31749,-0.74557004 0.43164,0.43165004 -2.76519,7.77079004 -5.00069,11.48030004 -1.07177,1.77849 -1.94869,3.29876 -1.94869,3.37839 0,0.0796 -0.30584,0.62926 -0.67966,1.22141 l -0.67966,1.07665 0.7439,-0.47814 c 0.40914,-0.26299 1.66887,-1.13531 2.79941,-1.9385 1.13053,-0.80319 3.89595,-2.72131 6.14539,-4.26247 3.95763,-2.7115 5.10546,-3.79329 5.76183,-5.43033 0.15813,-0.39437 0.50784,-2.18241 0.77714,-3.97341 0.4281,-2.84715 0.65275,-3.59784 1.78774,-5.97384 1.62981,-3.4118504 2.10048,-3.5818704 2.10048,-0.75875 0,2.80775 -1.69784,7.74026 -3.90719,11.3511 -0.51878,0.84785 -0.51796,0.84759 1.62984,-0.52925 1.18189,-0.75765 2.92645,-1.87371 3.87682,-2.48016 3.05317,-1.94828 4.15447,-3.54124004 5.08773,-7.35914 0.94105,-3.8497604 1.5132,-5.5452204 2.62035,-7.76488 1.74411,-3.49673 2.36143,-3.51496 1.97121,-0.0583 -0.42583,3.7722896 -1.15984,5.68957 -3.74099,9.77193 -0.84597,1.33797996 -1.62683,2.58336996 -1.73522,2.76752996 -0.10841,0.18417004 1.31843,-0.42458 3.17075,-1.35279 5.17597,-2.59367996 6.34503,-4.10005996 6.70139,-8.63503036 0.21678,-2.7584996 0.74485,-4.2007696 2.32189,-6.3414996 1.33643,-1.81411 1.66869,-1.31444 1.26833,1.9074 -0.39337,3.16558 -1.26294,5.1571196 -4.21739,9.65891 l -0.46637,0.71062 2.14183,-0.91674 c 3.28702,-1.40691 4.56442,-2.18134 5.69171,-3.4506404 1.685,-1.89728 1.85192,-2.5236896 1.47868,-5.5489796 -0.27873,-2.25926 -0.26658,-2.76318 0.0961,-3.98304 0.54411,-1.83028 0.82005,-2.25532 1.21065,-1.86472 0.75445,0.75446 0.9595,4.54973 0.36539,6.76318 -0.20863,0.77724 -0.38068,1.46371 -0.38236,1.52547 -0.002,0.0618 0.33782,-0.21427 0.75444,-0.61342 0.43106,-0.41299 1.21352,-1.80645 1.81575,-3.23363 1.20426,-2.8539 2.53446,-4.61579 3.48485,-4.61579 0.54587,0 0.62233,0.11631 0.62233,0.94664 0,1.67692 -0.90455,2.95231 -5.15398,7.26694 -2.26539,2.3001596 -4.08028,4.22072 -4.03309,4.2679 0.10068,0.10068 12.15952,-4.30672 13.06654,-4.7757 1.30572,-0.67515 2.35722,-1.65041 4.37347,-4.05631 2.36395,-2.82083 3.14982,-3.40521 3.75946,-2.79557 0.3469,0.3469 0.33035,0.48299 -0.15421,1.26701 -0.68282,1.10483 -2.92765,3.24027 -4.35044,4.13843 -0.59635,0.37646 -1.08427,0.72959 -1.08427,0.78474 0,0.11884 2.14513,-0.50126 7.06584,-2.04259 3.22136,-1.00904 3.72468,-1.24737 4.81791,-2.28131 1.77134,-1.67524 4.27992,-2.22981 5.33119,-1.17854 0.62338,0.62339 0.64285,0.98622 0.0949,1.76854 -0.62451,0.89162 -1.9131,1.3147 -4.00496,1.31496 -1.92177,2.3e-4 -3.76527,0.42698 -10.58275,2.4498 -3.46733,1.02879 -3.70821,1.34659 -1.05201,1.38794 3.87738,0.0604 7.9229,1.4905796 6.14552,2.1726096 -0.90912,0.34887 -2.36988,0.10335 -5.33592,-0.89683 -2.67936,-0.9034996 -3.32637,-1.0321196 -4.56299,-0.9070396 -1.22075,0.12349 -9.294,2.7169596 -9.68984,3.1127996 -0.0725,0.0724 0.74879,0.13173 1.82498,0.13173 2.8548,0 7.78274,0.7036504 8.87957,1.2678904 1.17239,0.60311 2.46652,1.93814 2.23771,2.30838 -0.48043,0.77734 -4.05562,-0.0602 -6.8081,-1.59489 l -1.94075,-1.08209 h -3.59715 -3.59715 l -2.95481,1.20245 c -3.51255,1.42945 -5.39572,2.25855 -5.39572,2.37557 0,0.0469 0.52589,-0.0269 1.16863,-0.16394 0.64274,-0.13709 3.38879,-0.20684 6.10231,-0.155 l 4.93368,0.0942 2.18214,0.89274 c 3.49807,1.43108996 2.92031,2.18348996 -1.66826,2.17251996 -1.8155,-0.005 -2.29553,-0.1148 -4.11102,-0.94612 -2.91965,-1.33689996 -4.1538,-1.59212996 -6.76936,-1.40000996 -2.74929,0.20195 -4.47538,0.73557 -8.2616,2.55413996 l -2.95481,1.41921004 3.86036,0.028 c 5.23646,0.0379 8.34086,0.62096 11.42754,2.14634 1.51677,0.74956 1.61377,1.56119 0.20061,1.67842 -1.73799,0.14417 -5.61979,-0.68179 -7.52339,-1.60081 -0.98921,-0.47759 -2.308,-1.00476 -2.93066,-1.1715 -1.54289,-0.41318 -5.35308,-0.35318 -6.65094,0.10472 -0.90827,0.32046 -8.34478,4.79346 -8.19926,4.93178 0.0286,0.0273 1.01365,-0.10508 2.18892,-0.29398 5.34769,-0.85957 8.48844,-0.7396 12.08132,0.46147 2.16914,0.72512 2.26083,1.22803 0.29888,1.63954 -2.48561,0.52133 -4.61455,0.4059098 -7.83664,-0.42488 -5.40886,-1.3946 -7.40544,-0.99886 -12.60169,2.49782 -5.4913,3.69524 -9.61829,6.586 -9.5294,6.67489 0.0459,0.0458 0.62971,-0.15833 1.29748,-0.45372 3.51678,-1.55564 6.44349,-2.37583 8.88592,-2.49022 2.4767,-0.116 6.69824,0.42502 7.76304,0.9949 0.44718,0.23931 0.46874,0.32799 0.15583,0.64089 -0.69769,0.69769 -4.46981,1.1276 -9.89688,1.12797 -4.80176,2.6e-4 -5.33962,0.0477 -7.1943,0.6336 -1.1025,0.34828 -2.64048,1.01634 -3.41771,1.48456 -1.27744,0.76957 -16.15792,12.20438 -17.30869,13.30077 -0.46076,0.43897 -0.35215,0.464 2.82633,0.65128 4.98703,0.29385 5.84952,0.24655 9.47204,-0.51944 6.92111,-1.46348 7.80259,-1.78768 10.53839,-3.87595 2.06473,-1.57606 3.73653,-2.51265 4.00528,-2.24389 0.5787,0.5787 -0.63068,1.65859 -3.94491,3.52249 -0.67126,0.3775 -1.22048,0.7253 -1.22048,0.77287 0,0.0475 0.54922,-0.0201 1.22048,-0.15029 6.35656,-1.23323 9.44382,-2.57749 14.29055,-6.22246 2.88142,-2.16695 5.55226,-3.75603 6.31291,-3.75603 0.52265,0 0.26798,0.93617 -0.43374,1.59447 -0.92405,0.86689 -3.2035,2.29897 -4.81761,3.02669 -1.42875,0.64417 -6.34232,3.3873 -6.23496,3.48084 0.0376,0.0328 3.42148,-0.62237 7.51966,-1.45591 4.09818,-0.83353 10.05275,-1.9818 13.23238,-2.5517 3.17962,-0.56991 5.95456,-1.12987 6.16654,-1.24437 0.297,-0.16043 0.36558,-0.59434 0.29896,-1.89148 -0.0912,-1.77607 0.45841,-3.54701 1.32211,-4.25994 1.20818,-0.99729 4.21824,-0.81789 5.94566,0.35437 0.97727,0.6632 1.24067,0.49754 0.40762,-0.25636 -1.34399,-1.21631 -1.63927,-4.32535 -0.58262,-6.13459 0.81446,-1.39454 1.95482,-1.9703 3.88892,-1.96346 0.93213,0.004 2.18555,-0.0196 2.78537,-0.0507 0.93025,-0.0484 1.2223,0.0709 1.98645,0.81159 0.49271,0.47756 1.02395,1.25643 1.18051,1.73081 0.35175,1.06582 0.10456,3.1436 -0.55449,4.66092 -0.45026,1.03659 -0.4531,1.10464 -0.0389,0.93007 1.22513,-0.51637 2.98549,-0.61309 3.83362,-0.21063 1.90325,0.90315 2.93597,3.05518 2.43014,5.06402 -0.2154,0.85541 -0.21683,1.48109 -0.006,2.39665 0.23417,1.01446 0.21358,1.41234 -0.11359,2.19539 -0.81347,1.9469 -3.52619,2.63577 -5.39235,1.36936 l -0.92253,-0.62604 0.52995,1.01673 c 0.73969,1.41912 0.59993,4.11273 -0.27732,5.34472 -0.89414,1.2557 -1.89777,1.57105 -5.00017,1.57105 -2.68092,0 -2.68385,-7.3e-4 -3.34853,-0.79062 -0.8362,-0.99377 -1.0136,-1.69912 -0.86824,-3.45205 0.0809,-0.97524 0.35963,-1.78533 0.93012,-2.70306 1.02191,-1.6439 1.02329,-1.79824 0.007,-0.80485 -1.78686,1.74698 -4.3512,2.30623 -5.87301,1.28082 -0.72312,-0.48725 -1.01277,-0.95505 -1.47864,-2.38798 -0.31865,-0.98013 -0.68231,-1.885 -0.80814,-2.01082 -0.26454,-0.26454 -6.03367,0.75437 -20.44404,3.61071 -10.62699,2.10641 -11.11805,2.30771 -5.78944,2.37324 2.5037,0.0308 7.58529,0.80486 7.99889,1.21845 0.55924,0.55925 -0.83202,0.90478 -3.73943,0.92874 -2.52354,0.0207 -3.06482,-0.0584 -4.77334,-0.69769 -3.68795,-1.38013 -8.51834,-1.15616 -17.85728,0.82799 -2.63739,0.56035 -2.86138,0.44789 3.14077,1.57695 4.46028,0.83902 8.35643,1.79652 13.30334,3.26936 5.70593,1.69884 6.40833,1.87184 7.60004,1.87184 1.81591,0 2.78981,-0.45196 4.52514,-2.10001 2.3038,-2.18791 4.1248,-2.82035 5.08039,-1.76444 0.99886,1.10373 -0.39551,3.03123 -2.68457,3.711 -0.75093,0.22301 -2.35657,0.52864 -3.5681,0.67919 -1.21154,0.15055 -2.23778,0.30871 -2.28053,0.35146 -0.21263,0.21262 5.11833,2.04041 6.25232,2.14369 1.67244,0.15233 2.59252,-0.31074 4.55282,-2.29143 1.96531,-1.98572 2.48782,-2.30047 3.90852,-2.35434 1.22694,-0.0465 1.9225,0.43563 1.9225,1.33262 0,0.63355 -2.22009,2.55918 -3.26689,2.83359 -0.53493,0.14022 -2.03883,0.51379 -3.34199,0.83014 l -2.3694,0.5752 2.7548,1.23189 c 2.97288,1.32942 4.09513,1.64471 5.00133,1.40511 0.31888,-0.0844 1.36752,-0.79042 2.33031,-1.56909 2.02097,-1.6345 2.80988,-1.92867 3.49923,-1.30482 1.02153,0.92447 -0.19468,2.11703 -2.86953,2.81373 -0.79441,0.20693 -1.70567,0.51606 -2.02504,0.68698 -0.56219,0.30088 -0.54098,0.33095 0.66572,0.94421 2.72902,1.38692 2.93109,1.40429 5.04636,0.43376 1.04548,-0.4797 2.32237,-0.87292 2.84303,-0.87553 1.58951,-0.008 2.18046,1.15238 0.92821,1.82256 -0.2789,0.14926 -1.38056,0.33745 -2.44812,0.41818 l -1.94104,0.14681 1.12942,0.58225 c 0.62118,0.32024 1.70754,0.66138 2.41413,0.75809 0.70658,0.0967 1.81867,0.402515 2.47131,0.679595 1.43457,0.60904 2.9294,2.06367 2.70952,2.63666 -0.35272,0.919192 -1.97553,0.337495 -5.72464,-2.052 -1.42961,-0.91117 -2.65129,-1.656675 -2.71485,-1.656675 -0.0636,0 0.43821,0.574505 1.11501,1.276675 1.29915,1.34785 1.74641,2.38785 1.3189,3.066822 -0.29659,0.47102 -0.85117,0.624924 -1.24435,0.345317 z m -69.87391,-16.626594 c 2.68502,-1.03274 6.71453,-2.49806 8.95448,-3.25626 l 4.07265,-1.37854 -2.40253,-0.20306 c -4.48185,-0.37881 -5.0976,-0.25194 -8.44061,1.73903 -3.76157,2.24025 -8.99288,5.54869 -8.99288,5.68737 0,0.0585 0.43359,-0.0776 0.96353,-0.30225 0.52993,-0.22472 3.16035,-1.25355 5.84536,-2.28629 z m 77.146,-13.90607 c -0.24485,-0.24485 -0.73574,0.15175 -0.55326,0.447 0.10846,0.17549 0.25217,0.17106 0.4367,-0.0135 0.15127,-0.15129 0.20372,-0.34636 0.11656,-0.43353 z m 2.5694,0 c -0.24486,-0.24485 -0.73575,0.15175 -0.55328,0.447 0.10846,0.17549 0.25218,0.17106 0.43671,-0.0135 0.15128,-0.15129 0.20373,-0.34636 0.11657,-0.43353 z m 0.86176,-0.95394 c -0.32979,-0.32978 -0.6642,-0.0749 -0.42006,0.32014 0.0946,0.15302 0.28965,0.20547 0.43352,0.11656 0.17549,-0.10845 0.17106,-0.25217 -0.0135,-0.4367 z m -1.71135,-0.23801 c 0.56367,-0.80476 0.49845,-1.40934 -0.23069,-2.13849 -0.77102,-0.77102 -1.15714,-0.78981 -1.9054,-0.0927 -0.45843,0.42709 -0.54291,0.70513 -0.40983,1.34893 0.30145,1.45848 1.78277,1.97181 2.54592,0.88225 z m -1.64102,-0.70467 c -0.3625,-0.22404 -0.2023,-1.03673 0.2044,-1.03673 0.2915,0 0.57086,0.9857 0.32281,1.13902 -0.0995,0.0615 -0.33671,0.0154 -0.52721,-0.10229 z m 1.45806,-0.50225 c -0.11177,-0.42738 -0.0783,-0.5277 0.11234,-0.33703 0.14931,0.1493 0.22092,0.42313 0.15913,0.6085 -0.0642,0.19243 -0.18062,0.076 -0.27147,-0.27147 z m 2.32264,0.0276 c 0.0559,-0.1678 -0.0814,-0.30511 -0.30513,-0.30511 -0.22375,0 -0.40681,0.18307 -0.40681,0.40682 0,0.45374 0.55312,0.37471 0.71194,-0.10171 z m -0.19807,-1.71828 c 0,-0.43225 -0.0472,-0.44977 -0.61985,-0.23001 -0.47038,0.1805 -0.29398,0.61542 0.24961,0.61542 0.20363,0 0.37024,-0.17343 0.37024,-0.38541 z m -1.54164,-1.02776 c 0,-0.14131 -0.11562,-0.29548 -0.25693,-0.34258 -0.14132,-0.0471 -0.25694,0.10705 -0.25694,0.34258 0,0.23553 0.11562,0.38969 0.25694,0.34259 0.14131,-0.0471 0.25693,-0.20127 0.25693,-0.34259 z m -1.54163,-0.24887 c 0,-0.22921 -0.15072,-0.31951 -0.38393,-0.23001 -0.21117,0.081 -0.31997,0.25083 -0.24178,0.37734 0.22421,0.36278 0.62571,0.26825 0.62571,-0.14733 z"
           id="path4521"
           inkscape:connector-curvature="0" />
      </g>
    </g>
  </g>
</svg>
